<?xml version="1.0" encoding="UTF-8"?>
<svg id="Logo" xmlns="http://www.w3.org/2000/svg" xmlns:xlink="http://www.w3.org/1999/xlink" viewBox="0 0 983.67 261.82">
  <defs>
    <style>
      .cls-1 {
        clip-path: url(#clippath-2);
      }

      .cls-2 {
        fill: url(#linear-gradient-2);
        stroke: url(#linear-gradient-3);
        stroke-linecap: round;
        stroke-linejoin: round;
        stroke-width: 10.43px;
      }

      .cls-3 {
        clip-path: url(#clippath-1);
      }

      .cls-4 {
        font-size: 267.7px;
        letter-spacing: -.02em;
      }

      .cls-4, .cls-5 {
        font-family: CascadiaMono-Roman, 'Cascadia Mono';
        font-variation-settings: 'wght' 400;
      }

      .cls-6 {
        font-family: Bauhaus93, 'Bauhaus 93';
      }

      .cls-6, .cls-5 {
        font-size: 277.12px;
        letter-spacing: -.03em;
      }

      .cls-5, .cls-7 {
        fill: none;
      }

      .cls-8 {
        clip-path: url(#clippath);
      }

      .cls-9 {
        fill: url(#linear-gradient);
      }

      .cls-10 {
        fill: url(#linear-gradient-4);
      }
    </style>
    <clipPath id="clippath">
      <text class="cls-5" transform="translate(520.36 197.22)"><tspan x="0" y="0">Tec</tspan></text>
    </clipPath>
    <linearGradient id="linear-gradient" x1="514.91" y1="126.66" x2="1001.04" y2="126.66" gradientUnits="userSpaceOnUse">
      <stop offset="0" stop-color="#0000b6"/>
      <stop offset=".17" stop-color="#1900c8"/>
      <stop offset=".39" stop-color="#3200da"/>
      <stop offset=".58" stop-color="#4100e6"/>
      <stop offset=".74" stop-color="#4700ea"/>
    </linearGradient>
    <clipPath id="clippath-1">
      <text class="cls-7" transform="translate(-11.78 193.74)"><tspan class="cls-6" x="0" y="0">H</tspan><tspan class="cls-4" x="164.51" y="0">ey</tspan></text>
    </clipPath>
    <linearGradient id="linear-gradient-2" x1="1.12" y1="117.35" x2="454.67" y2="117.35" gradientUnits="userSpaceOnUse">
      <stop offset="0" stop-color="#ffdfad"/>
      <stop offset=".38" stop-color="#ffc47d"/>
      <stop offset=".46" stop-color="#ffbf80"/>
      <stop offset=".56" stop-color="#ffb289"/>
      <stop offset=".65" stop-color="#ff9d99"/>
      <stop offset=".75" stop-color="#ff7faf"/>
      <stop offset=".84" stop-color="#ff58cc"/>
      <stop offset=".94" stop-color="#ff2aef"/>
      <stop offset=".98" stop-color="#ff15ff"/>
    </linearGradient>
    <linearGradient id="linear-gradient-3" x1="-4.1" y1="117.35" x2="459.89" y2="117.35" gradientUnits="userSpaceOnUse">
      <stop offset="0" stop-color="#ffecca"/>
      <stop offset=".38" stop-color="#ffc47d"/>
      <stop offset=".46" stop-color="#ffbf80"/>
      <stop offset=".56" stop-color="#ffb289"/>
      <stop offset=".65" stop-color="#ff9d99"/>
      <stop offset=".75" stop-color="#ff7faf"/>
      <stop offset=".84" stop-color="#ff58cc"/>
      <stop offset=".94" stop-color="#ff2aef"/>
      <stop offset=".98" stop-color="#ff15ff"/>
    </linearGradient>
    <clipPath id="clippath-2">
      <path class="cls-7" d="M489.27,161.28h10.46c3.05,0,5.69,1.09,7.91,3.27,2.22,2.18,3.33,4.75,3.33,7.71v9.67c0,3.05-1.07,5.64-3.2,7.78-2.14,2.14-4.73,3.2-7.78,3.2h-10.98c-3.05,0-5.64-1.07-7.78-3.2-2.14-2.13-3.2-4.73-3.2-7.78v-9.41c.09-3.05,1.22-5.69,3.4-7.91,2.18-2.22,4.79-3.33,7.84-3.33Zm21.96-130.58l-5.36,85.09c-.26,3.14-1.44,5.75-3.53,7.84-2.09,2.09-4.57,3.14-7.45,3.14-3.23,0-5.86-1.09-7.91-3.27-2.05-2.18-3.16-4.75-3.33-7.71l-5.36-85.36c-.18-2.96,.85-5.53,3.07-7.71,2.22-2.18,4.86-3.27,7.91-3.27h10.98c3.05,0,5.69,1.16,7.91,3.46,2.22,2.31,3.25,4.9,3.07,7.78Z"/>
    </clipPath>
    <linearGradient id="linear-gradient-4" x1="471.32" y1="114.46" x2="514.91" y2="114.46" gradientUnits="userSpaceOnUse">
      <stop offset="0" stop-color="#4700ea"/>
      <stop offset="1" stop-color="#0000b6"/>
    </linearGradient>
  </defs>
  <g class="cls-8">
    <rect class="cls-9" x="514.91" y="-33.13" width="486.12" height="319.59"/>
  </g>
  <g class="cls-3">
    <rect class="cls-2" x="1.12" y="-35.94" width="453.56" height="306.57"/>
  </g>
  <g class="cls-1">
    <rect class="cls-10" x="471.32" y="5.47" width="43.59" height="217.97"/>
  </g>
</svg>